<?xml version="1.0" encoding="utf-8"?>
<!-- Generator: Adobe Illustrator 26.0.1, SVG Export Plug-In . SVG Version: 6.00 Build 0)  -->
<svg version="1.1" id="Layer_1" xmlns="http://www.w3.org/2000/svg" xmlns:xlink="http://www.w3.org/1999/xlink" x="0px" y="0px"
	 viewBox="0 0 600 600" style="enable-background:new 0 0 600 600;" xml:space="preserve">
<style type="text/css">
	.st0{fill:#86785C;}
</style>
<g>
	<g>
		<path class="st0" d="M380.5,239.3c4.3,2.5,8.8-0.7,8.8-6.2c0-15.5,0-30.9,0-46.4c0-15.7,0-31.4,0-47.1c0-4.2-1.9-6.6-5.1-7.1
			c-3.8-0.5-6.8,2.4-6.8,7c-0.1,13.2,0,26.4,0,39.6c0,17.8,0,35.6,0,53.5C377.4,235.4,377.9,237.8,380.5,239.3z"/>
		<path class="st0" d="M354.3,208.7c0,7.5,0,15,0,22.4c0,0.7,0,1.5,0,2.2c0.2,4,2.6,6.7,6,6.8c3.5,0,5.9-2.6,5.9-6.7
			c0-15.7,0-31.4,0-47.1c0-12.2,0-24.4,0-36.6c0-3.7,0.1-7.5,0-11.2c-0.1-3.5-2.3-5.8-5.5-6c-3.2-0.2-5.9,2.1-6.4,5.5
			c-0.2,1.1-0.1,2.2-0.1,3.4C354.3,163.8,354.3,186.3,354.3,208.7z"/>
		<path class="st0" d="M407.3,271.5c11.6-7.2,16.5-18,15.3-31.1c-3-33.6-6.7-67.2-10-100.8c-0.3-3.1-1.2-5.5-4.4-6.5
			c-4.9-1.2-8.1,1.5-7.7,6.8c0.7,8.2,1.5,16.3,2.4,24.5c0.8,7.9,1.8,15.8,2.7,23.6c0,0,0,0,0,0c0.1,2,0.1,4,0.3,5.9
			c1.4,14.7,2.7,29.4,4.5,44.1c0.9,7.5-0.6,14-4.9,20h0c-3.4,2.5-6.8,5.1-10.3,7.6c-4.8,2.1-7.1,5.5-6.7,11.1
			c1,16.4,1.6,32.9,2.3,49.3c0.8,17.1,1.6,34.1,2.4,51.2c-0.1,2.1-0.3,4.2,0.5,6.2c0,0,0,0,0,0c0.1,2.9,0.1,5.8,0.2,8.8
			c0,2.6-0.3,5.2,0.5,7.7c0,0,0,0,0,0c0.1,2.9,0.1,5.8,0.2,8.7c0,2.8-0.3,5.7,0.5,8.4c0,0,0,0,0,0c0.1,2.2,0.1,4.3,0.2,6.5
			c-0.1,4.5-0.1,8.9-0.2,13.4c-1.6,5.2-4.3,9.8-8.4,13.5c-3,1.5-5.9,3-8.9,4.6c0,0,0,0,0,0c-3.7,0.5-7.4,1-11.2,0.2
			c-5.2-1.3-9.5-4-13.3-7.7c-4.4-5.9-5.9-12.4-5.4-19.7c0.7-10.3,1-20.7,1.5-31c0.9-19.9,1.9-39.8,2.7-59.7
			c0.9-20.8,1.7-41.6,2.6-62.4c0.1-2.5-0.3-4.8-2.5-6.3c-4.2-2.9-8.4-5.7-12.6-8.6c-5.4-5.5-7.6-12.1-6.8-19.7
			c0.3-2.7,0.5-5.4,0.8-8.2c1.9-18.9,3.8-37.9,5.7-56.8c1.2-11.8,2.4-23.5,3.4-35.3c0.4-4.1-1.9-6.9-5.4-7.1
			c-3.2-0.2-5.9,2.1-6.4,5.9c-0.3,2.2-0.5,4.5-0.6,6.7c-1,12.4-2.8,24.7-3.4,37.1c-0.2,0.7-0.5,1.4-0.6,2.1
			c-1.8,17.5-3.5,34.9-5.2,52.4c-0.9,9.3-0.1,18.1,5.9,25.9c2.5,4.6,6.6,7.4,11,9.9c0,0,0,0,0,0c4.6,2.3,5,6.1,4.7,10.8
			c-1,16.8-1.6,33.6-2.3,50.4c-0.9,19-1.8,38.1-2.7,57.1c-0.6,13.9-1.6,27.9-1.6,41.8c0,12,5.2,21.8,15.5,28.5
			c3.5,2.7,7.4,4.5,11.8,5.1c0.3,0.1,0.5,0.2,0.8,0.2c5.1,1.5,10.1,1.4,15.2-0.2c3.3-0.3,6.2-1.5,8.9-3.3c3.4-1.6,6.4-3.7,8.8-6.7
			c0,0,0,0,0,0c7.2-7.2,10.4-16,10.1-26c-0.4-11.2-1-22.4-1.5-33.6c-1.6-37.2-3-74.5-5-111.7C400.6,278.8,401.4,274.3,407.3,271.5z"
			/>
	</g>
	<path class="st0" d="M263.9,273.2c0.2-0.5,0.6-1,1.1-1.4c1.4-0.9,2.7-1.9,4-3c13.2-12.8,22.1-32.8,23.3-55.6
		c0.2-3.6,0.2-7.2,0-10.7c0-0.4,0-0.8-0.1-1.2c0-0.5-0.1-1-0.1-1.5c-0.1-1.1-0.2-2.1-0.3-3.2c0-0.1,0-0.3-0.1-0.4
		c-0.1-1.1-0.3-2.1-0.4-3.2c0-0.1,0-0.2-0.1-0.3c-0.1-0.9-0.3-1.8-0.5-2.8c-0.9-4.7-2.2-9.4-4-14c0,0,0,0,0,0
		c-0.5-1.8-1.1-3.5-1.8-5.2c-4.7-10.9-11.4-20.1-19.4-26.7c-0.2-0.1-0.3-0.2-0.5-0.3c-0.2-0.2-0.4-0.4-0.6-0.5c-2-1.5-4-2.9-6.1-4.2
		c-0.8-0.4-1.6-0.7-2.4-1.1c-3-1.9-6.3-3-9.7-3.7c-3.8-1-7.6-1.7-11.5-1.7c-3.9-0.1-7.7,0.7-11.5,1.7c-3.4,0.7-6.7,1.8-9.7,3.7
		c-0.8,0.3-1.6,0.7-2.4,1.1c-2.1,1.2-4.1,2.6-6.1,4.2c-0.2,0.2-0.4,0.3-0.6,0.5c-0.2,0.1-0.3,0.2-0.5,0.3
		c-8,6.7-14.7,15.8-19.4,26.7c-0.7,1.7-1.3,3.4-1.8,5.2c0,0,0,0,0,0c-1.8,4.6-3.1,9.3-4,14c-0.2,0.9-0.3,1.8-0.5,2.8
		c0,0.1,0,0.2-0.1,0.3c-0.2,1.1-0.3,2.1-0.4,3.2c0,0.1,0,0.3-0.1,0.4c-0.1,1.1-0.2,2.1-0.3,3.2c0,0.5-0.1,1-0.1,1.5
		c0,0.4,0,0.8-0.1,1.2c-0.2,3.5-0.2,7.1,0,10.7c1.2,22.8,10.1,42.8,23.3,55.6c1.2,1.1,2.6,2.1,4,3c0.6,0.4,0.9,0.9,1.1,1.4l0,0
		c0.5,1.1,0.4,2.3,0.3,3.6c-1.2,24.9-2.3,49.7-3.5,74.6c-0.1,2.4-0.1,4.7-0.1,7.1c-1.1,24.2-2.2,48.4-3.2,72.6
		c-0.2,5.8,0.8,11.4,3.9,16.4c2.4,5.6,6.2,9.9,11.2,13.2c3.6,2.8,7.5,4.7,12,5.4c2.8,0.8,5.6,1.4,8.5,1.4v-11.8
		c-2.2,0.1-4.5,0-6.7-0.7v-0.1c-0.1,0-0.1,0-0.2,0c-4.2-1.7-8-4-11.1-7.4c0,0,0,0,0,0c0,0-0.1,0-0.1,0c-4.3-5.4-5.9-11.6-5.5-18.5
		c0.7-12.8,1.1-25.6,1.7-38.4c0.9-19.7,1.8-39.3,2.7-59c0.8-17.1,1.5-34.3,2.2-51.4c0,0,0,0,0,0c0.1-2.9,0.2-5.8,0.4-8.7
		c0.1-1.9-0.1-3.6-1.2-5c-8.1-4.6-15-12.5-19.9-22.5c0,0,0,0,0,0c0-0.1,0-0.1-0.1-0.2c-2.5-5.1-4.5-10.8-5.9-16.9
		c-4.5-18.5-2.5-37,5.9-55.5c0.1,0,0.2,0,0.2-0.1c0-0.1,0.1-0.2,0.1-0.3c0-0.1,0-0.1-0.1-0.2c0.5-0.8,0.9-1.6,1.4-2.3
		c6.2-11,14.8-19,24.8-22.3c0.1-0.1,0.2-0.1,0.3-0.2c0,0,0.1,0,0.1,0c0,0,0,0,0.1,0c0,0,0.1-0.1,0.1-0.1c0.3-0.1,0.7-0.1,1-0.2
		c2.1-0.6,4.2-0.9,6.3-1.1c1.1-0.1,2.3-0.3,3.5-0.3c1.2,0,2.3,0.1,3.5,0.3c2.1,0.2,4.2,0.5,6.3,1.1c0.3,0.1,0.7,0.1,1,0.2
		c0,0,0.1,0.1,0.1,0.1c0,0,0,0,0.1,0c0,0,0.1,0,0.1,0c0.1,0.1,0.2,0.1,0.3,0.2c9.9,3.3,18.6,11.3,24.8,22.3c0.5,0.8,0.9,1.6,1.4,2.3
		c0,0.1,0,0.1-0.1,0.2c0,0.1,0.1,0.2,0.1,0.3c0.1,0,0.1,0,0.2,0.1c8.4,18.5,10.4,37,5.9,55.5c-1.4,6.1-3.3,11.8-5.9,16.9
		c0,0.1,0,0.1-0.1,0.2c0,0,0,0,0,0c-4.9,10-11.8,17.9-19.9,22.5c-1,1.4-1.3,3.1-1.2,5c0.1,2.9,0.2,5.8,0.4,8.7c0,0,0,0,0,0
		c0.7,17.1,1.5,34.3,2.2,51.4c0.9,19.7,1.8,39.3,2.7,59c0.6,12.8,1,25.6,1.7,38.4c0.4,6.9-1.2,13-5.5,18.5c0,0-0.1,0-0.1,0
		c0,0,0,0,0,0c-3.1,3.3-6.9,5.7-11.1,7.4c-0.1,0-0.1,0-0.2,0v0.1c-2.2,0.7-4.5,0.8-6.7,0.7v11.8c2.9,0,5.7-0.5,8.5-1.4
		c4.5-0.7,8.4-2.7,12-5.4c5-3.3,8.9-7.6,11.3-13.2c3.1-5,4.1-10.6,3.9-16.4c-1-24.2-2.1-48.4-3.2-72.6c0-2.4,0-4.7-0.1-7.1
		c-1.1-24.9-2.3-49.7-3.5-74.6C263.5,275.6,263.4,274.3,263.9,273.2L263.9,273.2z"/>
</g>
<g>
	<path class="st0" d="M300,14c38.6,0,76.1,7.6,111.3,22.5c34.1,14.4,64.6,35,90.9,61.3c26.3,26.3,46.9,56.9,61.3,90.9
		C578.4,223.9,586,261.4,586,300s-7.6,76.1-22.5,111.3c-14.4,34.1-35,64.6-61.3,90.9c-26.3,26.3-56.9,46.9-90.9,61.3
		C376.1,578.4,338.6,586,300,586s-76.1-7.6-111.3-22.5c-34.1-14.4-64.6-35-90.9-61.3c-26.3-26.3-46.9-56.9-61.3-90.9
		C21.6,376.1,14,338.6,14,300s7.6-76.1,22.5-111.3c14.4-34.1,35-64.6,61.3-90.9c26.3-26.3,56.9-46.9,90.9-61.3
		C223.9,21.6,261.4,14,300,14 M300,0C134.3,0,0,134.3,0,300s134.3,300,300,300s300-134.3,300-300S465.7,0,300,0L300,0z"/>
</g>
</svg>
